<svg xmlns="http://www.w3.org/2000/svg" viewBox="0 0 24 24" height="24" width="24"><title>coding-apps-websites-404-error</title><g><path d="M22.86 3.4312500000000004H24v1.1400000000000001h-1.1400000000000001Z" fill="#9e5e44" stroke-width="0.75"></path><path d="m22.86 11.42625 -2.2874999999999996 0 0 1.1475 1.1400000000000001 0 0 3.4275 -2.2874999999999996 0 0 -1.1400000000000001 -1.1400000000000001 0 0 2.2800000000000002 3.4275 0 0 3.435 1.1475 0 0 -3.435 1.1400000000000001 0 0 -1.1400000000000001 -1.1400000000000001 0 0 -4.574999999999999z" fill="#9e5e44" stroke-width="0.75"></path><path d="m22.86 6.85875 -1.1475 0 0 1.1400000000000001 -1.1400000000000001 0 0 1.1475 1.1400000000000001 0 0 1.1400000000000001 1.1475 0 0 -1.1400000000000001 1.1400000000000001 0 0 -1.1475 -1.1400000000000001 0 0 -1.1400000000000001z" fill="#9e5e44" stroke-width="0.75"></path><path d="M19.424999999999997 12.57375h1.1475v2.2874999999999996H19.424999999999997Z" fill="#9e5e44" stroke-width="0.75"></path><path d="M18.285 4.57125h1.1400000000000001v1.1475h-1.1400000000000001Z" fill="#9e5e44" stroke-width="0.75"></path><path d="M17.145 9.14625h1.1400000000000001v2.2800000000000002h-1.1400000000000001Z" fill="#9e5e44" stroke-width="0.75"></path><path d="m9.1425 19.42875 0 -5.715 -1.1400000000000001 0 0 3.4275 -1.1475 0 0 1.1475 -1.1400000000000001 0 0 2.2874999999999996 1.1400000000000001 0 0 1.1400000000000001 10.290000000000001 0 0 -1.1400000000000001 1.1400000000000001 0 0 -2.2874999999999996 -1.1400000000000001 0 0 -1.1475 -1.1475 0 0 -3.4275 -1.1400000000000001 0 0 5.715 -5.715 0z" fill="#9e5e44" stroke-width="0.75"></path><path d="M15.997499999999999 11.42625h1.1475v1.1475h-1.1475Z" fill="#9e5e44" stroke-width="0.75"></path><path d="M15.997499999999999 7.998749999999999h1.1475v1.1475h-1.1475Z" fill="#9e5e44" stroke-width="0.75"></path><path d="M14.857499999999998 2.28375h1.1400000000000001v1.1475h-1.1400000000000001Z" fill="#9e5e44" stroke-width="0.75"></path><path d="M13.7175 12.57375h1.1400000000000001v1.1400000000000001h-1.1400000000000001Z" fill="#9e5e44" stroke-width="0.75"></path><path d="M13.7175 7.998749999999999h1.1400000000000001v1.1475h-1.1400000000000001Z" fill="#9e5e44" stroke-width="0.75"></path><path d="M12.57 14.861250000000002h1.1475v1.1400000000000001h-1.1475Z" fill="#9e5e44" stroke-width="0.75"></path><path d="M10.2825 17.14125h3.435v1.1475h-3.435Z" fill="#9e5e44" stroke-width="0.75"></path><path d="M10.2825 11.42625h3.435v1.1475h-3.435Z" fill="#9e5e44" stroke-width="0.75"></path><path d="M10.2825 14.861250000000002h1.1475v1.1400000000000001h-1.1475Z" fill="#9e5e44" stroke-width="0.75"></path><path d="m10.2825 5.71875 0 1.1400000000000001 -1.1400000000000001 0 0 1.1400000000000001 1.1400000000000001 0 0 1.1475 1.1475 0 0 -1.1475 1.1400000000000001 0 0 -1.1400000000000001 -1.1400000000000001 0 0 -1.1400000000000001 -1.1475 0z" fill="#9e5e44" stroke-width="0.75"></path><path d="M9.1425 12.57375h1.1400000000000001v1.1400000000000001h-1.1400000000000001Z" fill="#9e5e44" stroke-width="0.75"></path><path d="M6.855 9.14625h2.2874999999999996v1.1400000000000001H6.855Z" fill="#9e5e44" stroke-width="0.75"></path><path d="M6.855 11.42625h1.1475v1.1475H6.855Z" fill="#9e5e44" stroke-width="0.75"></path><path d="M6.855 2.28375h1.1475v1.1475H6.855Z" fill="#9e5e44" stroke-width="0.75"></path><path d="M5.715 10.286249999999999h1.1400000000000001v1.1400000000000001H5.715Z" fill="#9e5e44" stroke-width="0.75"></path><path d="m2.2874999999999996 11.42625 0 1.1475 1.1400000000000001 0 0 3.4275 -2.2874999999999996 0 0 -1.1400000000000001 -1.1400000000000001 0 0 2.2800000000000002 3.4275 0 0 2.2874999999999996 1.1475 0 0 -2.2874999999999996 1.1400000000000001 0 0 -1.1400000000000001 -1.1400000000000001 0 0 -4.574999999999999 -2.2874999999999996 0z" fill="#9e5e44" stroke-width="0.75"></path><path d="M4.574999999999999 6.85875h1.1400000000000001v1.1400000000000001H4.574999999999999Z" fill="#9e5e44" stroke-width="0.75"></path><path d="M1.1400000000000001 12.57375h1.1475v2.2874999999999996H1.1400000000000001Z" fill="#9e5e44" stroke-width="0.75"></path><path d="m1.1400000000000001 3.4312500000000004 0 1.1400000000000001 -1.1400000000000001 0 0 1.1475 1.1400000000000001 0 0 1.1400000000000001 1.1475 0 0 -1.1400000000000001 1.1400000000000001 0 0 -1.1475 -1.1400000000000001 0 0 -1.1400000000000001 -1.1475 0z" fill="#9e5e44" stroke-width="0.75"></path></g></svg>