<svg xmlns="http://www.w3.org/2000/svg" viewBox="0 0 24 24" height="24" width="24"><title>content-files-archive-books-3</title><g><path d="M21.72 10.290000000000001V6.855h-1.1475v1.1475h-2.2800000000000002V5.715h1.1400000000000001V4.574999999999999h-2.2874999999999996V2.2874999999999996h-1.1400000000000001V0H3.435v1.1400000000000001H1.1475v9.149999999999999H0V24h24V10.290000000000001Zm-4.574999999999999 -4.574999999999999v3.4275h3.4275v1.1475H11.43v-4.574999999999999ZM2.2874999999999996 2.2874999999999996h1.1475v8.0025H2.2874999999999996Zm4.574999999999999 11.43H5.715v1.1400000000000001H3.435v-1.1400000000000001H2.2874999999999996v-1.1475h4.574999999999999Zm0 -3.4275H4.574999999999999V1.1400000000000001h10.2825v1.1475H6.862500000000001Zm1.1400000000000001 -6.862500000000001h8.0025V4.574999999999999h-5.715v5.715h-2.2874999999999996Zm14.857499999999998 19.4325H9.149999999999999V11.43h13.71Z" fill="#9e5e44" stroke-width="0.75"></path><path d="M20.572499999999998 17.145h1.1475v1.1400000000000001h-1.1475Z" fill="#9e5e44" stroke-width="0.75"></path><path d="M14.857499999999998 20.572499999999998h6.862500000000001v1.1400000000000001h-6.862500000000001Z" fill="#9e5e44" stroke-width="0.75"></path><path d="M19.4325 5.715h1.1400000000000001v1.1400000000000001h-1.1400000000000001Z" fill="#9e5e44" stroke-width="0.75"></path><path d="M17.145 18.285h2.2874999999999996v1.1475h-2.2874999999999996Z" fill="#9e5e44" stroke-width="0.75"></path><path d="M14.857499999999998 17.145h1.1475v1.1400000000000001h-1.1475Z" fill="#9e5e44" stroke-width="0.75"></path></g></svg>