<?xml version="1.0"?>
<svg width="24" height="24" xmlns="http://www.w3.org/2000/svg" xmlns:svg="http://www.w3.org/2000/svg">
 <title>hand-point</title>

 <g class="layer">
  <title>Layer 1</title>
  <g id="svg_1" transform="rotate(-89.843, 11.962, 12)">
   <path d="m6.29,13.72l0,1.14l-2.27,0l0,3.43l-1.13,0l0,-8.01l1.13,0l0,3.44l2.27,0z" fill="#9e5e44" id="svg_2" stroke-width="0.75"/>
   <path d="m5.15,20.57l11.35,0l0,-1.14l1.13,0l0,1.14l1.13,0l0,3.43l-15.88,0l0,-3.43l1.13,0l0,-2.29l1.14,0l-0.01,2.29zm0,2.29l2.26,0l0,-1.15l-2.26,0l0,1.15z" fill="#9e5e44" id="svg_3" stroke-width="0.75"/>
   <path d="m5.15,9.14l-1.13,0l0,1.14l1.13,0l0,-1.14z" fill="#9e5e44" id="svg_4" stroke-width="0.75"/>
   <path d="m7.41,13.72l-1.13,0l0,-4.58l-1.13,0l0,-1.14l2.26,0l0,5.72z" fill="#9e5e44" id="svg_5" stroke-width="0.75"/>
   <path d="m9.69,13.72l-2.27,0l0,1.14l2.27,0l0,-1.14z" fill="#9e5e44" id="svg_6" stroke-width="0.75"/>
   <path d="m15.37,14.86l-3.41,0l0,1.14l3.41,0l0,-1.14z" fill="#9e5e44" id="svg_7" stroke-width="0.75"/>
   <path d="m14.24,10.28l1.13,0l0,1.15l-2.27,0l0,-3.43l-2.27,0l0,3.43l2.27,0l0,1.14l-1.13,0l0,2.29l-1.14,0l0,-1.14l-1.13,0l0,-5.72l-2.26,0l0,-1.15l5.67,0l0,-5.71l1.14,0l0,9.14z" fill="#9e5e44" id="svg_8" stroke-width="0.75"/>
   <path d="m16.5,0l-2.26,0l0,1.14l2.26,0l0,-1.14z" fill="#9e5e44" id="svg_9" stroke-width="0.75"/>
   <path d="m16.5,13.72l-1.13,0l0,1.14l1.13,0l0,-1.14z" fill="#9e5e44" id="svg_10" stroke-width="0.75"/>
   <path d="m15.37,10.28l0,-1.14l1.13,0l0,-8l1.14,0l0,8l1.13,0l0,1.14l-3.41,0z" fill="#9e5e44" id="svg_11" stroke-width="0.75"/>
   <path d="m18.77,18.29l-1.13,0l0,1.14l1.13,0l0,-1.14z" fill="#9e5e44" id="svg_12" stroke-width="0.75"/>
   <path d="m19.91,16l-1.13,0l0,2.28l1.13,0l0,-2.28z" fill="#9e5e44" id="svg_13" stroke-width="0.75"/>
   <path d="m19.91,10.28l-1.13,0l0,1.15l1.13,0l0,-1.15z" fill="#9e5e44" id="svg_14" stroke-width="0.75"/>
   <path d="m21.04,11.43l-1.13,0l0,4.57l1.13,0l0,-4.57z" fill="#9e5e44" id="svg_15" stroke-width="0.75"/>
  </g>
 </g>
</svg>