<svg xmlns="http://www.w3.org/2000/svg" viewBox="0 0 24 24" height="24" width="24"><title>chat-email</title><g><path d="M22.8525 1.1475H24v11.43h-1.1475Z" fill="#9e5e44" stroke-width="0.75"></path><path d="m21.7125 14.857499999999998 -1.1400000000000001 0 0 1.1475 2.2800000000000002 0 0 -3.4275 -1.1400000000000001 0 0 2.2800000000000002z" fill="#9e5e44" stroke-width="0.75"></path><path d="M19.424999999999997 13.7175h1.1475v1.1400000000000001H19.424999999999997Z" fill="#9e5e44" stroke-width="0.75"></path><path d="M18.285 9.1425h3.4275v1.1475h-3.4275Z" fill="#9e5e44" stroke-width="0.75"></path><path d="M18.285 6.862500000000001h3.4275v1.1400000000000001h-3.4275Z" fill="#9e5e44" stroke-width="0.75"></path><path d="M19.424999999999997 4.574999999999999h2.2874999999999996v1.1400000000000001H19.424999999999997Z" fill="#9e5e44" stroke-width="0.75"></path><path d="M15.997499999999999 2.2874999999999996h5.715v1.1475h-5.715Z" fill="#9e5e44" stroke-width="0.75"></path><path d="M18.285 12.5775h1.1400000000000001v1.1400000000000001h-1.1400000000000001Z" fill="#9e5e44" stroke-width="0.75"></path><path d="m17.145 11.43 0 -3.4275 -1.1475 0 0 11.43 1.1475 0 0 -6.855 1.1400000000000001 0 0 -1.1475 -1.1400000000000001 0z" fill="#9e5e44" stroke-width="0.75"></path><path d="M9.1425 4.574999999999999h9.1425v1.1400000000000001H9.1425Z" fill="#9e5e44" stroke-width="0.75"></path><path d="M11.43 19.4325h4.5675v1.1400000000000001h-4.5675Z" fill="#9e5e44" stroke-width="0.75"></path><path d="M11.43 2.2874999999999996h3.4275v1.1475h-3.4275Z" fill="#9e5e44" stroke-width="0.75"></path><path d="M3.4275 10.290000000000001v6.855h10.2825v-6.855Zm9.1425 2.2874999999999996h-1.1400000000000001v1.1400000000000001h-1.1475v1.1400000000000001H6.855v-1.1400000000000001H5.715v-1.1400000000000001H4.5675v-1.1475h1.1475v1.1475h1.1400000000000001v1.1400000000000001h3.4275v-1.1400000000000001h1.1475v-1.1475h1.1400000000000001Z" fill="#9e5e44" stroke-width="0.75"></path><path d="m10.2825 22.86 -1.1400000000000001 0 0 1.1400000000000001 2.2874999999999996 0 0 -3.4275 -1.1475 0 0 2.2874999999999996z" fill="#9e5e44" stroke-width="0.75"></path><path d="M9.1425 2.2874999999999996h1.1400000000000001v1.1475h-1.1400000000000001Z" fill="#9e5e44" stroke-width="0.75"></path><path d="M7.995 0h14.857499999999998v1.1475H7.995Z" fill="#9e5e44" stroke-width="0.75"></path><path d="M7.995 21.72h1.1475v1.1400000000000001h-1.1475Z" fill="#9e5e44" stroke-width="0.75"></path><path d="M6.855 20.572499999999998h1.1400000000000001v1.1475H6.855Z" fill="#9e5e44" stroke-width="0.75"></path><path d="M1.1400000000000001 19.4325h5.715v1.1400000000000001H1.1400000000000001Z" fill="#9e5e44" stroke-width="0.75"></path><path d="m15.997499999999999 8.0025 0 -1.1400000000000001 -8.0025 0 0 -5.715 -1.1400000000000001 0 0 5.715 -5.715 0 0 1.1400000000000001 14.857499999999998 0z" fill="#9e5e44" stroke-width="0.75"></path><path d="M0 8.0025h1.1400000000000001v11.43H0Z" fill="#9e5e44" stroke-width="0.75"></path></g></svg>
