<svg xmlns="http://www.w3.org/2000/svg" viewBox="0 0 24 24" height="24" width="24"><title>content-files-note</title><g><path d="M20.573999999999998 3.4312500000000004h1.1400000000000001v19.424999999999997h-1.1400000000000001Z" fill="#9e5e44" stroke-width="0.75"></path><path d="M19.4265 2.28375h1.1475v1.1475h-1.1475Z" fill="#9e5e44" stroke-width="0.75"></path><path d="M18.2865 1.1437499999999998h1.1400000000000001v1.1400000000000001h-1.1400000000000001Z" fill="#9e5e44" stroke-width="0.75"></path><path d="M19.424999999999997 5.71125h-1.1400000000000001V4.574999999999999h-1.1400000000000001V3.4312500000000004h-1.1475v-1.1475H2.289V24H19.424999999999997Zm-1.1400000000000001 17.145H3.4290000000000003v-19.424999999999997h10.2825v4.5675h4.574999999999999Z" fill="#9e5e44" stroke-width="0.75"></path><path d="M3.4290000000000003 -0.00375h14.857499999999998v1.1475H3.4290000000000003Z" fill="#9e5e44" stroke-width="0.75"></path><path d="M5.7165 19.42875h10.2825v1.1400000000000001H5.7165Z" fill="#9e5e44" stroke-width="0.75"></path><path d="M5.7165 14.85375h10.2825v1.1475H5.7165Z" fill="#9e5e44" stroke-width="0.75"></path><path d="M5.7165 10.286249999999999h10.2825v1.1400000000000001H5.7165Z" fill="#9e5e44" stroke-width="0.75"></path><path d="M5.7165 5.71125h4.5675v1.1475h-4.5675Z" fill="#9e5e44" stroke-width="0.75"></path></g></svg>