<svg xmlns="http://www.w3.org/2000/svg" viewBox="0 0 24 24" height="24" width="24"><title>interface-essential-paginate-filter-picture</title><g><path d="M22.2825 1.71h1.1475v17.145h-1.1475Z" fill="#9e5e44" stroke-width="0.75"></path><path d="m5.137499999999999 18.855 0 1.1400000000000001 1.1475 0 0 1.1475 1.1400000000000001 0 0 -1.1475 2.2874999999999996 0 0 1.1475 1.1400000000000001 0 0 -1.1475 2.2874999999999996 0 0 1.1475 1.1400000000000001 0 0 -1.1475 2.2874999999999996 0 0 1.1475 1.1475 0 0 -1.1475 1.1400000000000001 0 0 1.1475 -1.1400000000000001 0 0 1.1400000000000001 -2.2874999999999996 0 0 -1.1400000000000001 -1.1475 0 0 1.1400000000000001 -2.2800000000000002 0 0 -1.1400000000000001 -1.1475 0 0 1.1400000000000001 -2.2800000000000002 0 0 -1.1400000000000001 -1.1475 0 0 1.1400000000000001 -2.2874999999999996 0 0 -1.1400000000000001 -1.1400000000000001 0 0 1.1400000000000001 -2.2874999999999996 0 0 1.1475 17.145 0 0 -1.1475 1.1400000000000001 0 0 -2.2874999999999996 2.2874999999999996 0 0 -1.1400000000000001 -17.145 0z" fill="#9e5e44" stroke-width="0.75"></path><path d="m19.995 9.712499999999999 -2.2800000000000002 0 0 1.1400000000000001 2.2800000000000002 0 0 3.435 1.1475 0 0 -10.290000000000001 -1.1475 0 0 5.715z" fill="#9e5e44" stroke-width="0.75"></path><path d="m17.715 13.14 -1.1475 0 0 1.1475 -9.1425 0 0 1.1400000000000001 12.57 0 0 -1.1400000000000001 -2.2800000000000002 0 0 -1.1475z" fill="#9e5e44" stroke-width="0.75"></path><path d="M16.5675 5.137499999999999h2.2874999999999996V7.425000000000001h-2.2874999999999996Z" fill="#9e5e44" stroke-width="0.75"></path><path d="M16.5675 10.852500000000001h1.1475V12h-1.1475Z" fill="#9e5e44" stroke-width="0.75"></path><path d="M15.4275 12h1.1400000000000001v1.1400000000000001h-1.1400000000000001Z" fill="#9e5e44" stroke-width="0.75"></path><path d="M14.28 10.852500000000001h1.1475V12h-1.1475Z" fill="#9e5e44" stroke-width="0.75"></path><path d="M13.14 9.712499999999999h1.1400000000000001v1.1400000000000001h-1.1400000000000001Z" fill="#9e5e44" stroke-width="0.75"></path><path d="M10.852500000000001 8.5725h2.2874999999999996v1.1400000000000001h-2.2874999999999996Z" fill="#9e5e44" stroke-width="0.75"></path><path d="M9.712499999999999 9.712499999999999h1.1400000000000001v1.1400000000000001h-1.1400000000000001Z" fill="#9e5e44" stroke-width="0.75"></path><path d="M8.5725 10.852500000000001h1.1400000000000001V12h-1.1400000000000001Z" fill="#9e5e44" stroke-width="0.75"></path><path d="M7.425000000000001 2.8575h12.57v1.1400000000000001H7.425000000000001Z" fill="#9e5e44" stroke-width="0.75"></path><path d="m8.5725 13.14 0 -1.1400000000000001 -1.1475 0 0 -8.0025 -1.1400000000000001 0 0 10.290000000000001 1.1400000000000001 0 0 -1.1475 1.1475 0z" fill="#9e5e44" stroke-width="0.75"></path><path d="M5.137499999999999 0.5700000000000001h17.145v1.1400000000000001H5.137499999999999Z" fill="#9e5e44" stroke-width="0.75"></path><path d="M2.8575 19.995h1.1400000000000001v1.1475H2.8575Z" fill="#9e5e44" stroke-width="0.75"></path><path d="m2.8575 19.995 0 -1.1400000000000001 -1.1475 0 0 -2.2874999999999996 1.1475 0 0 -1.1400000000000001 -1.1475 0 0 -2.2874999999999996 1.1475 0 0 -1.1400000000000001 -1.1475 0 0 -2.2874999999999996 1.1475 0 0 -1.1400000000000001 -1.1475 0 0 -2.2874999999999996 1.1475 0 0 -1.1475 1.1400000000000001 0 0 1.1475 -1.1400000000000001 0 0 1.1400000000000001 1.1400000000000001 0 0 2.2874999999999996 -1.1400000000000001 0 0 1.1400000000000001 1.1400000000000001 0 0 2.2874999999999996 -1.1400000000000001 0 0 1.1475 1.1400000000000001 0 0 2.2800000000000002 -1.1400000000000001 0 0 1.1475 1.1400000000000001 0 0 1.1400000000000001 1.1400000000000001 0 0 -17.145 -1.1400000000000001 0 0 2.2874999999999996 -2.2874999999999996 0 0 1.1400000000000001 -1.1400000000000001 0 0 17.145 1.1400000000000001 0 0 -2.2874999999999996 1.1475 0z" fill="#9e5e44" stroke-width="0.75"></path></g></svg>