<svg xmlns="http://www.w3.org/2000/svg" viewBox="0 0 24 24" height="24" width="24"><title>interface-essential-waiting-hourglass-loading</title><g><path d="m14.857499999999998 20.0025 0 1.1400000000000001 2.2800000000000002 0 0 1.1475 -10.2825 0 0 -1.1475 2.2874999999999996 0 0 -1.1400000000000001 -2.2874999999999996 0 0 -2.2874999999999996 -1.1400000000000001 0 0 4.574999999999999 -2.2874999999999996 0 0 1.1400000000000001 17.145 0 0 -1.1400000000000001 -2.2874999999999996 0 0 -4.574999999999999 -1.1475 0 0 2.2874999999999996 -2.2800000000000002 0z" fill="#ffffff" stroke-width="0.75"></path><path d="M15.997499999999999 15.4275h1.1400000000000001v2.2874999999999996h-1.1400000000000001Z" fill="#ffffff" stroke-width="0.75"></path><path d="M15.997499999999999 6.285h1.1400000000000001v2.2874999999999996h-1.1400000000000001Z" fill="#ffffff" stroke-width="0.75"></path><path d="M14.857499999999998 14.287500000000001h1.1400000000000001v1.1400000000000001h-1.1400000000000001Z" fill="#ffffff" stroke-width="0.75"></path><path d="M13.71 13.1475h1.1475v1.1400000000000001h-1.1475Z" fill="#ffffff" stroke-width="0.75"></path><path d="M12.57 18.855h2.2874999999999996v1.1475h-2.2874999999999996Z" fill="#ffffff" stroke-width="0.75"></path><path d="m14.857499999999998 10.86 0 -1.1475 1.1400000000000001 0 0 -1.1400000000000001 -8.0025 0 0 1.1400000000000001 1.1475 0 0 1.1475 1.1400000000000001 0 0 2.2874999999999996 1.1475 0 0 5.7075000000000005 1.1400000000000001 0 0 -5.7075000000000005 1.1400000000000001 0 0 -2.2874999999999996 1.1475 0z" fill="#ffffff" stroke-width="0.75"></path><path d="M9.1425 18.855h2.2874999999999996v1.1475h-2.2874999999999996Z" fill="#ffffff" stroke-width="0.75"></path><path d="M9.1425 13.1475h1.1400000000000001v1.1400000000000001h-1.1400000000000001Z" fill="#ffffff" stroke-width="0.75"></path><path d="M7.995 14.287500000000001h1.1475v1.1400000000000001h-1.1475Z" fill="#ffffff" stroke-width="0.75"></path><path d="M6.855 15.4275h1.1400000000000001v2.2874999999999996H6.855Z" fill="#ffffff" stroke-width="0.75"></path><path d="M6.855 6.285h1.1400000000000001v2.2874999999999996H6.855Z" fill="#ffffff" stroke-width="0.75"></path><path d="m6.855 1.7175 10.2825 0 0 4.5675 1.1475 0 0 -4.5675 2.2874999999999996 0 0 -1.1475 -17.145 0 0 1.1475 2.2874999999999996 0 0 4.5675 1.1400000000000001 0 0 -4.5675z" fill="#ffffff" stroke-width="0.75"></path></g></svg>