<svg width="23.999999999999996" height="23.999999999999996" xmlns="http://www.w3.org/2000/svg">
 <title>interface-essential-waiting-hourglass-loading</title>

 <g>
  <title>Layer 1</title>
  <g transform="rotate(-180, 12, 12)" id="svg_1">
   <path id="svg_2" stroke-width="0.75" fill="#9e5e44" d="m14.8575,20.0025l0,1.14l2.28,0l0,1.1475l-10.2825,0l0,-1.1475l2.2875,0l0,-1.14l-2.2875,0l0,-2.2875l-1.14,0l0,4.575l-2.2875,0l0,1.14l17.145,0l0,-1.14l-2.2875,0l0,-4.575l-1.1475,0l0,2.2875l-2.28,0z"/>
   <path id="svg_3" stroke-width="0.75" fill="#9e5e44" d="m15.9975,15.4275l1.14,0l0,2.2875l-1.14,0l0,-2.2875z"/>
   <path id="svg_4" stroke-width="0.75" fill="#9e5e44" d="m15.9975,6.285l1.14,0l0,2.2875l-1.14,0l0,-2.2875z"/>
   <path id="svg_5" stroke-width="0.75" fill="#9e5e44" d="m14.8575,14.2875l1.14,0l0,1.14l-1.14,0l0,-1.14z"/>
   <path id="svg_6" stroke-width="0.75" fill="#9e5e44" d="m13.71,13.1475l1.1475,0l0,1.14l-1.1475,0l0,-1.14z"/>
   <path id="svg_7" stroke-width="0.75" fill="#9e5e44" d="m12.57,18.855l2.2875,0l0,1.1475l-2.2875,0l0,-1.1475z"/>
   <path id="svg_8" stroke-width="0.75" fill="#9e5e44" d="m14.8575,10.86l0,-1.1475l1.14,0l0,-1.14l-8.0025,0l0,1.14l1.1475,0l0,1.1475l1.14,0l0,2.2875l1.1475,0l0,5.7075l1.14,0l0,-5.7075l1.14,0l0,-2.2875l1.1475,0z"/>
   <path id="svg_9" stroke-width="0.75" fill="#9e5e44" d="m9.1425,18.855l2.2875,0l0,1.1475l-2.2875,0l0,-1.1475z"/>
   <path id="svg_10" stroke-width="0.75" fill="#9e5e44" d="m9.1425,13.1475l1.14,0l0,1.14l-1.14,0l0,-1.14z"/>
   <path id="svg_11" stroke-width="0.75" fill="#9e5e44" d="m7.995,14.2875l1.1475,0l0,1.14l-1.1475,0l0,-1.14z"/>
   <path id="svg_12" stroke-width="0.75" fill="#9e5e44" d="m6.855,15.4275l1.14,0l0,2.2875l-1.14,0l0,-2.2875z"/>
   <path id="svg_13" stroke-width="0.75" fill="#9e5e44" d="m6.855,6.285l1.14,0l0,2.2875l-1.14,0l0,-2.2875z"/>
   <path id="svg_14" stroke-width="0.75" fill="#9e5e44" d="m6.855,1.7175l10.2825,0l0,4.5675l1.1475,0l0,-4.5675l2.2875,0l0,-1.1475l-17.145,0l0,1.1475l2.2875,0l0,4.5675l1.14,0l0,-4.5675z"/>
  </g>
 </g>
</svg>