<svg xmlns="http://www.w3.org/2000/svg" viewBox="0 0 24 24" height="24" width="24"><title>interface-essential-signin-login</title><g><path d="m17.14125 7.187250000000001 0 1.1400000000000001 -1.1475 0 0 1.1475 -1.1400000000000001 0 0 1.1400000000000001 -1.1400000000000001 0 0 2.2874999999999996 1.1400000000000001 0 0 1.1400000000000001 1.1400000000000001 0 0 1.1475 1.1475 0 0 1.1400000000000001 1.1400000000000001 0 0 -3.4275 4.574999999999999 0 0 -2.2874999999999996 -4.574999999999999 0 0 -3.4275 -1.1400000000000001 0z" fill="#ffffff" stroke-width="0.75"></path><path d="M15.993749999999999 18.61725h1.1475v2.2874999999999996h-1.1475Z" fill="#ffffff" stroke-width="0.75"></path><path d="M15.993749999999999 1.47225h1.1475v3.4275h-1.1475Z" fill="#ffffff" stroke-width="0.75"></path><path d="m11.42625 23.18475 0 -1.1400000000000001 4.5675 0 0 -1.1400000000000001 -4.5675 0 0 -14.857499999999998 -1.1400000000000001 0 0 17.137500000000003 1.1400000000000001 0z" fill="#ffffff" stroke-width="0.75"></path><path d="M6.85125 23.18475h3.435v1.1475h-3.435Z" fill="#ffffff" stroke-width="0.75"></path><path d="M7.998749999999999 12.902249999999999h1.1400000000000001v2.2874999999999996h-1.1400000000000001Z" fill="#ffffff" stroke-width="0.75"></path><path d="M7.998749999999999 4.89975h2.2874999999999996v1.1475h-2.2874999999999996Z" fill="#ffffff" stroke-width="0.75"></path><path d="M4.57125 22.04475h2.2800000000000002v1.1400000000000001h-2.2800000000000002Z" fill="#ffffff" stroke-width="0.75"></path><path d="M5.71125 3.75975h2.2874999999999996v1.1400000000000001h-2.2874999999999996Z" fill="#ffffff" stroke-width="0.75"></path><path d="M2.28375 20.90475h2.2874999999999996v1.1400000000000001h-2.2874999999999996Z" fill="#ffffff" stroke-width="0.75"></path><path d="M3.42375 2.61975h2.2874999999999996v1.1400000000000001h-2.2874999999999996Z" fill="#ffffff" stroke-width="0.75"></path><path d="m2.28375 0.33225 0 1.1400000000000001 -1.1400000000000001 0 0 19.4325 1.1400000000000001 0 0 -18.285 1.1400000000000001 0 0 -1.1475 12.57 0 0 -1.1400000000000001 -13.71 0z" fill="#ffffff" stroke-width="0.75"></path></g></svg>