<svg xmlns="http://www.w3.org/2000/svg" viewBox="0 0 24 24" height="24" width="24"><title>interface-essential-pin</title><g><path d="M22.28625 6.285h1.1400000000000001v2.2874999999999996h-1.1400000000000001Z" fill="#9e5e44" stroke-width="0.75"></path><path d="M21.146250000000002 5.1450000000000005h1.1400000000000001v1.1400000000000001h-1.1400000000000001Z" fill="#9e5e44" stroke-width="0.75"></path><path d="M19.99875 8.5725h2.2874999999999996v1.1400000000000001h-2.2874999999999996Z" fill="#9e5e44" stroke-width="0.75"></path><path d="M19.99875 3.9975h1.1475v1.1475h-1.1475Z" fill="#9e5e44" stroke-width="0.75"></path><path d="M18.85875 7.425000000000001h1.1400000000000001v1.1475h-1.1400000000000001Z" fill="#9e5e44" stroke-width="0.75"></path><path d="M18.85875 2.8575h1.1400000000000001v1.1400000000000001h-1.1400000000000001Z" fill="#9e5e44" stroke-width="0.75"></path><path d="M17.71125 8.5725h1.1475v1.1400000000000001h-1.1475Z" fill="#9e5e44" stroke-width="0.75"></path><path d="M17.71125 6.285h1.1475V7.425000000000001h-1.1475Z" fill="#9e5e44" stroke-width="0.75"></path><path d="M17.71125 1.71h1.1475v1.1475h-1.1475Z" fill="#9e5e44" stroke-width="0.75"></path><path d="M16.57125 13.14h1.1400000000000001v3.4275h-1.1400000000000001Z" fill="#9e5e44" stroke-width="0.75"></path><path d="M16.57125 9.712499999999999h1.1400000000000001v1.1400000000000001h-1.1400000000000001Z" fill="#9e5e44" stroke-width="0.75"></path><path d="M16.57125 5.1450000000000005h1.1400000000000001v1.1400000000000001h-1.1400000000000001Z" fill="#9e5e44" stroke-width="0.75"></path><path d="M15.431249999999999 0.5700000000000001h2.2800000000000002v1.1400000000000001h-2.2800000000000002Z" fill="#9e5e44" stroke-width="0.75"></path><path d="M15.431249999999999 16.5675h1.1400000000000001v2.2874999999999996h-1.1400000000000001Z" fill="#9e5e44" stroke-width="0.75"></path><path d="M15.431249999999999 10.852500000000001h1.1400000000000001v2.2874999999999996h-1.1400000000000001Z" fill="#9e5e44" stroke-width="0.75"></path><path d="M15.431249999999999 3.9975h1.1400000000000001v1.1475h-1.1400000000000001Z" fill="#9e5e44" stroke-width="0.75"></path><path d="M14.283750000000001 18.855h1.1475v1.1400000000000001h-1.1475Z" fill="#9e5e44" stroke-width="0.75"></path><path d="M14.283750000000001 5.1450000000000005h1.1475v1.1400000000000001h-1.1475Z" fill="#9e5e44" stroke-width="0.75"></path><path d="M14.283750000000001 1.71h1.1475v2.2874999999999996h-1.1475Z" fill="#9e5e44" stroke-width="0.75"></path><path d="M13.143749999999999 12h1.1400000000000001v1.1400000000000001h-1.1400000000000001Z" fill="#9e5e44" stroke-width="0.75"></path><path d="M13.143749999999999 6.285h1.1400000000000001V7.425000000000001h-1.1400000000000001Z" fill="#9e5e44" stroke-width="0.75"></path><path d="M12.00375 19.995h2.2800000000000002v1.1475h-2.2800000000000002Z" fill="#9e5e44" stroke-width="0.75"></path><path d="M12.00375 10.852500000000001h1.1400000000000001V12h-1.1400000000000001Z" fill="#9e5e44" stroke-width="0.75"></path><path d="M10.85625 18.855h1.1475v1.1400000000000001h-1.1475Z" fill="#9e5e44" stroke-width="0.75"></path><path d="M10.85625 9.712499999999999h1.1475v1.1400000000000001h-1.1475Z" fill="#9e5e44" stroke-width="0.75"></path><path d="M10.85625 7.425000000000001h2.2874999999999996v1.1475h-2.2874999999999996Z" fill="#9e5e44" stroke-width="0.75"></path><path d="M9.71625 17.715h1.1400000000000001v1.1400000000000001h-1.1400000000000001Z" fill="#9e5e44" stroke-width="0.75"></path><path d="m2.86125 22.2825 1.1400000000000001 0 0 -1.1400000000000001 1.1400000000000001 0 0 -1.1475 1.1475 0 0 -1.1400000000000001 1.1400000000000001 0 0 -1.1400000000000001 2.2874999999999996 0 0 -1.1475 -1.1475 0 0 -1.1400000000000001 -1.1400000000000001 0 0 -1.1400000000000001 -1.1400000000000001 0 0 2.2800000000000002 -1.1475 0 0 1.1475 -1.1400000000000001 0 0 1.1400000000000001 -1.1400000000000001 0 0 1.1400000000000001 -1.1475 0 0 1.1475 -1.1400000000000001 0 0 2.2874999999999996 2.2874999999999996 0 0 -1.1475z" fill="#9e5e44" stroke-width="0.75"></path><path d="M7.428749999999999 6.285h3.4275V7.425000000000001h-3.4275Z" fill="#9e5e44" stroke-width="0.75"></path><path d="M5.14125 7.425000000000001h2.2874999999999996v1.1475h-2.2874999999999996Z" fill="#9e5e44" stroke-width="0.75"></path><path d="M5.14125 13.14h1.1475v1.1475h-1.1475Z" fill="#9e5e44" stroke-width="0.75"></path><path d="M4.00125 12h1.1400000000000001v1.1400000000000001h-1.1400000000000001Z" fill="#9e5e44" stroke-width="0.75"></path><path d="M4.00125 8.5725h1.1400000000000001v1.1400000000000001h-1.1400000000000001Z" fill="#9e5e44" stroke-width="0.75"></path><path d="M2.86125 9.712499999999999h1.1400000000000001V12h-1.1400000000000001Z" fill="#9e5e44" stroke-width="0.75"></path></g></svg>