<svg xmlns="http://www.w3.org/2000/svg" viewBox="0 0 24 24" height="50" width="50"><title>logo-social-media-youtube-circle</title><path d="M22.8525 6.855h-1.1400000000000001V4.5675h-1.1475V3.4275H19.424999999999997V2.2874999999999996h-2.2874999999999996V1.1400000000000001h-2.2800000000000002V0h-5.715v1.1400000000000001H6.855v1.1475H4.5675v1.1400000000000001H3.4275v1.1400000000000001H2.2800000000000002v2.2874999999999996H1.1400000000000001v2.2874999999999996H0v5.715h1.1400000000000001v2.2874999999999996h1.1400000000000001v2.2800000000000002h1.1475v1.1475h1.1400000000000001v1.1400000000000001h2.2874999999999996v1.1475h2.2874999999999996V24h5.715v-1.1400000000000001h2.2800000000000002v-1.1475h2.2874999999999996v-1.1400000000000001h1.1400000000000001V19.424999999999997h1.1475v-2.2800000000000002h1.1400000000000001v-2.2874999999999996H24v-5.715h-1.1475Zm-5.715 5.715h-1.1400000000000001v1.1475h-1.1400000000000001v1.1400000000000001h-1.1475v1.1400000000000001h-1.1400000000000001v1.1475h-2.2874999999999996v1.1400000000000001h-1.1400000000000001V5.715h1.1400000000000001v1.1400000000000001h2.2874999999999996v1.1475h1.1400000000000001v1.1400000000000001h1.1475v1.1400000000000001h1.1400000000000001v1.1475h1.1400000000000001Z" fill="#9e5e44" stroke-width="0.75"></path></svg>
