<svg xmlns="http://www.w3.org/2000/svg" viewBox="0 0 24 24" height="24" width="24"><title>interface-essential-file-error</title><g><path d="M2.2874999999999996 24h19.424999999999997V5.715h-1.1400000000000001V4.574999999999999h-1.1400000000000001V3.4275h-1.1475V2.2874999999999996h-1.1400000000000001V1.1400000000000001h-1.1475V0H2.2874999999999996ZM3.4275 1.1400000000000001h11.43v5.715h5.715v16.005H3.4275Z" fill="#9e5e44" stroke-width="0.75"></path><path d="m5.715 14.857499999999998 0 1.1400000000000001 8.0025 0 0 2.2874999999999996 1.1400000000000001 0 0 -2.2874999999999996 2.2874999999999996 0 0 2.2874999999999996 1.1400000000000001 0 0 -3.4275 -12.57 0z" fill="#9e5e44" stroke-width="0.75"></path><path d="m17.145 9.1425 -1.1475 0 0 1.1400000000000001 -1.1400000000000001 0 0 1.1475 1.1400000000000001 0 0 1.1400000000000001 1.1475 0 0 -1.1400000000000001 1.1400000000000001 0 0 -1.1475 -1.1400000000000001 0 0 -1.1400000000000001z" fill="#9e5e44" stroke-width="0.75"></path><path d="M14.857499999999998 18.285h2.2874999999999996v1.1400000000000001h-2.2874999999999996Z" fill="#9e5e44" stroke-width="0.75"></path><path d="m6.855 12.57 1.1475 0 0 -1.1400000000000001 1.1400000000000001 0 0 -1.1475 -1.1400000000000001 0 0 -1.1400000000000001 -1.1475 0 0 1.1400000000000001 -1.1400000000000001 0 0 1.1475 1.1400000000000001 0 0 1.1400000000000001z" fill="#9e5e44" stroke-width="0.75"></path></g></svg>