<svg xmlns="http://www.w3.org/2000/svg" viewBox="0 0 24 24" height="24" width="24"><title>health-stool</title><g><path d="M22.28625 16.57125h1.1400000000000001v4.574999999999999h-1.1400000000000001Z" fill="#9e5e44" stroke-width="0.75"></path><path d="M21.146250000000002 21.146250000000002h1.1400000000000001v1.1400000000000001h-1.1400000000000001Z" fill="#9e5e44" stroke-width="0.75"></path><path d="M21.146250000000002 12.00375h1.1400000000000001v3.4275h-1.1400000000000001Z" fill="#9e5e44" stroke-width="0.75"></path><path d="M21.146250000000002 2.8537500000000002h1.1400000000000001v1.1475h-1.1400000000000001Z" fill="#9e5e44" stroke-width="0.75"></path><path d="M19.99875 15.431249999999999h1.1475v1.1400000000000001h-1.1475Z" fill="#9e5e44" stroke-width="0.75"></path><path d="M19.99875 10.85625h1.1475v1.1475h-1.1475Z" fill="#9e5e44" stroke-width="0.75"></path><path d="M19.99875 4.00125h1.1475v1.1400000000000001h-1.1475Z" fill="#9e5e44" stroke-width="0.75"></path><path d="M2.86125 22.28625h18.285v1.1400000000000001H2.86125Z" fill="#9e5e44" stroke-width="0.75"></path><path d="M18.85875 13.143749999999999h1.1400000000000001v1.1400000000000001h-1.1400000000000001Z" fill="#9e5e44" stroke-width="0.75"></path><path d="M18.85875 2.8537500000000002h1.1400000000000001v1.1475h-1.1400000000000001Z" fill="#9e5e44" stroke-width="0.75"></path><path d="M16.57125 14.283750000000001h2.2874999999999996v1.1475h-2.2874999999999996Z" fill="#9e5e44" stroke-width="0.75"></path><path d="M17.71875 12.00375h1.1400000000000001v1.1400000000000001h-1.1400000000000001Z" fill="#9e5e44" stroke-width="0.75"></path><path d="M16.57125 9.71625h3.4275v1.1400000000000001h-3.4275Z" fill="#9e5e44" stroke-width="0.75"></path><path d="M16.57125 16.57125h3.4275v1.1400000000000001h-3.4275Z" fill="#9e5e44" stroke-width="0.75"></path><path d="M16.57125 7.428749999999999h2.2874999999999996v1.1400000000000001h-2.2874999999999996Z" fill="#9e5e44" stroke-width="0.75"></path><path d="M15.431249999999999 15.431249999999999h1.1400000000000001v1.1400000000000001h-1.1400000000000001Z" fill="#9e5e44" stroke-width="0.75"></path><path d="M15.431249999999999 10.85625h1.1400000000000001v3.4275h-1.1400000000000001Z" fill="#9e5e44" stroke-width="0.75"></path><path d="M15.431249999999999 5.14125h1.1400000000000001v2.2874999999999996h-1.1400000000000001Z" fill="#9e5e44" stroke-width="0.75"></path><path d="M14.283750000000001 4.00125h1.1475v1.1400000000000001h-1.1475Z" fill="#9e5e44" stroke-width="0.75"></path><path d="M13.143749999999999 2.8537500000000002h1.1400000000000001v1.1475h-1.1400000000000001Z" fill="#9e5e44" stroke-width="0.75"></path><path d="M12.00375 18.85875h3.4275v1.1400000000000001h-3.4275Z" fill="#9e5e44" stroke-width="0.75"></path><path d="M12.00375 1.71375h1.1400000000000001v1.1400000000000001h-1.1400000000000001Z" fill="#9e5e44" stroke-width="0.75"></path><path d="M10.85625 17.71125h1.1475v1.1475h-1.1475Z" fill="#9e5e44" stroke-width="0.75"></path><path d="M10.85625 12.00375h1.1475v3.4275h-1.1475Z" fill="#9e5e44" stroke-width="0.75"></path><path d="M10.85625 0.57375h1.1475v1.1400000000000001h-1.1475Z" fill="#9e5e44" stroke-width="0.75"></path><path d="M9.71625 15.431249999999999h1.1400000000000001v1.1400000000000001h-1.1400000000000001Z" fill="#9e5e44" stroke-width="0.75"></path><path d="M9.71625 10.85625h1.1400000000000001v1.1475h-1.1400000000000001Z" fill="#9e5e44" stroke-width="0.75"></path><path d="M9.71625 1.71375h1.1400000000000001v3.4275h-1.1400000000000001Z" fill="#9e5e44" stroke-width="0.75"></path><path d="M8.57625 13.143749999999999h1.1400000000000001v1.1400000000000001h-1.1400000000000001Z" fill="#9e5e44" stroke-width="0.75"></path><path d="M6.28875 9.71625h3.4275v1.1400000000000001h-3.4275Z" fill="#9e5e44" stroke-width="0.75"></path><path d="m9.71625 5.14125 -1.1400000000000001 0 0 1.1475 -1.1475 0 0 1.1400000000000001 2.2874999999999996 0 0 -2.2874999999999996z" fill="#9e5e44" stroke-width="0.75"></path><path d="M7.428749999999999 12.00375h1.1475v1.1400000000000001h-1.1475Z" fill="#9e5e44" stroke-width="0.75"></path><path d="M7.428749999999999 0.57375h1.1475v1.1400000000000001h-1.1475Z" fill="#9e5e44" stroke-width="0.75"></path><path d="M6.28875 14.283750000000001h2.2874999999999996v1.1475h-2.2874999999999996Z" fill="#9e5e44" stroke-width="0.75"></path><path d="M5.14125 7.428749999999999h2.2874999999999996v1.1400000000000001h-2.2874999999999996Z" fill="#9e5e44" stroke-width="0.75"></path><path d="M6.28875 1.71375h1.1400000000000001v1.1400000000000001h-1.1400000000000001Z" fill="#9e5e44" stroke-width="0.75"></path><path d="M5.14125 16.57125h4.574999999999999v1.1400000000000001h-4.574999999999999Z" fill="#9e5e44" stroke-width="0.75"></path><path d="M5.14125 10.85625h1.1475v3.4275h-1.1475Z" fill="#9e5e44" stroke-width="0.75"></path><path d="M5.14125 0.57375h1.1475v1.1400000000000001h-1.1475Z" fill="#9e5e44" stroke-width="0.75"></path><path d="M4.00125 15.431249999999999h1.1400000000000001v1.1400000000000001h-1.1400000000000001Z" fill="#9e5e44" stroke-width="0.75"></path><path d="M4.00125 8.568750000000001h1.1400000000000001v1.1475h-1.1400000000000001Z" fill="#9e5e44" stroke-width="0.75"></path><path d="M4.00125 4.00125h1.1400000000000001v1.1400000000000001h-1.1400000000000001Z" fill="#9e5e44" stroke-width="0.75"></path><path d="M2.86125 9.71625h1.1400000000000001v3.4275h-1.1400000000000001Z" fill="#9e5e44" stroke-width="0.75"></path><path d="M2.86125 5.14125h1.1400000000000001v1.1475h-1.1400000000000001Z" fill="#9e5e44" stroke-width="0.75"></path><path d="M1.71375 21.146250000000002h1.1475v1.1400000000000001h-1.1475Z" fill="#9e5e44" stroke-width="0.75"></path><path d="M1.71375 17.71125h1.1475v1.1475h-1.1475Z" fill="#9e5e44" stroke-width="0.75"></path><path d="M1.71375 13.143749999999999h1.1475v1.1400000000000001h-1.1475Z" fill="#9e5e44" stroke-width="0.75"></path><path d="M1.71375 4.00125h1.1475v1.1400000000000001h-1.1475Z" fill="#9e5e44" stroke-width="0.75"></path><path d="M0.57375 18.85875h1.1400000000000001v2.2874999999999996H0.57375Z" fill="#9e5e44" stroke-width="0.75"></path><path d="M0.57375 14.283750000000001h1.1400000000000001v3.4275H0.57375Z" fill="#9e5e44" stroke-width="0.75"></path></g></svg>