<svg xmlns="http://www.w3.org/2000/svg" viewBox="0 0 24 24" height="24" width="24"><title>email-forward-mail</title><g><path d="m22.8525 13.7175 -1.1400000000000001 0 0 -1.1400000000000001 -1.1400000000000001 0 0 -1.1475 -1.1475 0 0 1.1475 -1.1400000000000001 0 0 1.1400000000000001 -2.2874999999999996 0 0 1.1400000000000001 -1.1400000000000001 0 0 2.2874999999999996 -5.715 0 0 -1.1400000000000001 -1.1475 0 0 -1.1475 -1.1400000000000001 0 0 -1.1400000000000001 -1.1400000000000001 0 0 -2.2874999999999996 -2.2874999999999996 0 0 1.1475 -1.1400000000000001 0 0 1.1400000000000001 -1.1475 0 0 1.1400000000000001 -1.1400000000000001 0 0 8.0025 1.1400000000000001 0 0 -5.715 6.855 0 0 1.1400000000000001 1.1475 0 0 1.1475 5.715 0 0 -1.1475 1.1400000000000001 0 0 -1.1400000000000001 6.855 0 0 5.715 1.1475 0 0 -8.0025 -1.1475 0 0 -1.1400000000000001z" fill="#ffffff" stroke-width="0.75"></path><path d="M21.7125 5.715h1.1400000000000001v1.1475h-1.1400000000000001Z" fill="#ffffff" stroke-width="0.75"></path><path d="M1.1400000000000001 22.86h21.7125V24H1.1400000000000001Z" fill="#ffffff" stroke-width="0.75"></path><path d="M20.572499999999998 6.862500000000001h1.1400000000000001v1.1400000000000001h-1.1400000000000001Z" fill="#ffffff" stroke-width="0.75"></path><path d="M20.572499999999998 4.574999999999999h1.1400000000000001v1.1400000000000001h-1.1400000000000001Z" fill="#ffffff" stroke-width="0.75"></path><path d="M19.424999999999997 8.0025h1.1475v1.1400000000000001H19.424999999999997Z" fill="#ffffff" stroke-width="0.75"></path><path d="M19.424999999999997 3.435h1.1475V4.574999999999999H19.424999999999997Z" fill="#ffffff" stroke-width="0.75"></path><path d="M18.285 9.1425h1.1400000000000001v1.1475h-1.1400000000000001Z" fill="#ffffff" stroke-width="0.75"></path><path d="M18.285 2.2874999999999996h1.1400000000000001v1.1475h-1.1400000000000001Z" fill="#ffffff" stroke-width="0.75"></path><path d="M17.145 10.290000000000001h1.1400000000000001v1.1400000000000001h-1.1400000000000001Z" fill="#ffffff" stroke-width="0.75"></path><path d="M17.145 1.1475h1.1400000000000001v1.1400000000000001h-1.1400000000000001Z" fill="#ffffff" stroke-width="0.75"></path><path d="M15.997499999999999 19.4325h1.1475v1.1400000000000001h-1.1475Z" fill="#ffffff" stroke-width="0.75"></path><path d="m15.997499999999999 9.1425 -3.4275 0 0 1.1475 2.2874999999999996 0 0 2.2874999999999996 2.2874999999999996 0 0 -1.1475 -1.1475 0 0 -2.2874999999999996z" fill="#ffffff" stroke-width="0.75"></path><path d="M7.995 20.572499999999998h8.0025v1.1475H7.995Z" fill="#ffffff" stroke-width="0.75"></path><path d="m10.2825 14.857499999999998 0 1.1475 3.4275 0 0 -2.2874999999999996 -1.1400000000000001 0 0 1.1400000000000001 -2.2874999999999996 0z" fill="#ffffff" stroke-width="0.75"></path><path d="M11.43 10.290000000000001h1.1400000000000001v3.4275h-1.1400000000000001Z" fill="#ffffff" stroke-width="0.75"></path><path d="m14.857499999999998 0 0 3.435 -4.574999999999999 0 0 1.1400000000000001 5.715 0 0 -3.4275 1.1475 0 0 -1.1475 -2.2874999999999996 0z" fill="#ffffff" stroke-width="0.75"></path><path d="M9.1425 13.7175h1.1400000000000001v1.1400000000000001h-1.1400000000000001Z" fill="#ffffff" stroke-width="0.75"></path><path d="M9.1425 4.574999999999999h1.1400000000000001v1.1400000000000001h-1.1400000000000001Z" fill="#ffffff" stroke-width="0.75"></path><path d="M7.995 11.43h1.1475v2.2874999999999996h-1.1475Z" fill="#ffffff" stroke-width="0.75"></path><path d="M7.995 5.715h1.1475v1.1475h-1.1475Z" fill="#ffffff" stroke-width="0.75"></path><path d="M6.855 19.4325h1.1400000000000001v1.1400000000000001H6.855Z" fill="#ffffff" stroke-width="0.75"></path><path d="M6.855 6.862500000000001h1.1400000000000001v4.5675H6.855Z" fill="#ffffff" stroke-width="0.75"></path></g></svg>