<?xml version="1.0"?>
<svg width="24" height="24" xmlns="http://www.w3.org/2000/svg" xmlns:svg="http://www.w3.org/2000/svg">
 <title>hand-writing</title>

 <g class="layer">
  <title>Layer 1</title>
  <g id="svg_1" transform="rotate(90, 12, 12)">
   <path d="m21.14,10.28l1.14,0l0,8.01l-1.14,0l0,-8.01z" fill="#9e5e44" id="svg_2" stroke-width="0.75"/>
   <path d="m20,20.57l-11.43,0l0,-1.14l-1.14,0l0,1.14l-1.14,0l0,3.43l15.99,0l0,-3.43l-1.14,0l0,-2.29l-1.14,0l0,2.29zm0,2.29l-2.28,0l0,-1.15l2.28,0l0,1.15z" fill="#9e5e44" id="svg_3" stroke-width="0.75"/>
   <path d="m20,9.14l1.14,0l0,1.14l-1.14,0l0,-1.14z" fill="#9e5e44" id="svg_4" stroke-width="0.75"/>
   <path d="m17.71,10.28l1.15,0l0,3.44l-1.15,0l0,-3.44z" fill="#9e5e44" id="svg_5" stroke-width="0.75"/>
   <path d="m17.71,8l2.29,0l0,1.14l-2.29,0l0,-1.14z" fill="#9e5e44" id="svg_6" stroke-width="0.75"/>
   <path d="m15.43,3.43l1.14,0l0,1.14l-1.14,0l0,-1.14z" fill="#9e5e44" id="svg_7" stroke-width="0.75"/>
   <path d="m16.57,3.43l1.14,0l0,-3.43l-3.42,0l0,1.14l2.28,0l0,2.29z" fill="#9e5e44" id="svg_8" stroke-width="0.75"/>
   <path d="m14.29,10.28l1.14,0l0,3.44l-1.14,0l0,-3.44z" fill="#9e5e44" id="svg_9" stroke-width="0.75"/>
   <path d="m14.29,4.57l1.14,0l0,1.14l-1.14,0l0,-1.14z" fill="#9e5e44" id="svg_10" stroke-width="0.75"/>
   <path d="m14.29,2.29l1.14,0l0,1.14l-1.14,0l0,-1.14z" fill="#9e5e44" id="svg_11" stroke-width="0.75"/>
   <path d="m13.14,1.14l1.15,0l0,1.15l-1.15,0l0,-1.15z" fill="#9e5e44" id="svg_12" stroke-width="0.75"/>
   <path d="m12,2.29l1.14,0l0,1.14l-1.14,0l0,-1.14z" fill="#9e5e44" id="svg_13" stroke-width="0.75"/>
   <path d="m10.86,10.28l1.14,0l0,3.44l-1.14,0l0,-3.44z" fill="#9e5e44" id="svg_14" stroke-width="0.75"/>
   <path d="m10.86,8l6.85,0l0,-1.15l-3.42,0l0,-1.14l-1.15,0l0,1.15l-1.14,0l0,-3.43l-3.43,0l0,1.15l2.29,0l0,3.42z" fill="#9e5e44" id="svg_15" stroke-width="0.75"/>
   <path d="m7.43,11.43l-1.14,0l0,1.14l1.14,0l0,2.29l1.14,0l0,-10.29l-1.14,0l0,2.28l-1.14,0l0,1.15l1.14,0l0,3.43z" fill="#9e5e44" id="svg_16" stroke-width="0.75"/>
   <path d="m6.29,18.29l1.14,0l0,1.14l-1.14,0l0,-1.14z" fill="#9e5e44" id="svg_17" stroke-width="0.75"/>
   <path d="m5.15,16l1.14,0l0,2.28l-1.14,0l0,-2.28z" fill="#9e5e44" id="svg_18" stroke-width="0.75"/>
   <path d="m5.15,12.57l1.14,0l0,1.15l-1.14,0l0,-1.15z" fill="#9e5e44" id="svg_19" stroke-width="0.75"/>
   <path d="m5.15,8l1.14,0l0,1.14l-1.14,0l0,-1.14z" fill="#9e5e44" id="svg_20" stroke-width="0.75"/>
   <path d="m4,13.72l1.14,0l0,2.28l-1.14,0l0,-2.28z" fill="#9e5e44" id="svg_21" stroke-width="0.75"/>
   <path d="m4,9.14l1.14,0l0,1.14l-1.14,0l0,-1.14z" fill="#9e5e44" id="svg_22" stroke-width="0.75"/>
   <path d="m2.86,12.57l1.14,0l0,1.15l-1.14,0l0,-1.15z" fill="#9e5e44" id="svg_23" stroke-width="0.75"/>
   <path d="m2.86,10.28l1.14,0l0,1.15l-1.14,0l0,-1.15z" fill="#9e5e44" id="svg_24" stroke-width="0.75"/>
   <path d="m1.72,11.43l1.14,0l0,1.14l-1.14,0l0,-1.14z" fill="#9e5e44" id="svg_25" stroke-width="0.75"/>
  </g>
 </g>
</svg>