<svg xmlns="http://www.w3.org/2000/svg" viewBox="0 0 24 24" height="24" width="24"><title>internet-network-www</title><g><path d="M22.8525 6.855h-1.1400000000000001v1.1475H19.424999999999997V6.855h-1.1400000000000001v1.1475H5.715V6.855H4.5675v1.1475H2.2874999999999996V6.855H1.1400000000000001v2.2874999999999996H0v5.715h1.1400000000000001v2.2874999999999996h1.1475v-1.1475h2.2800000000000002v1.1475h1.1475v-1.1475h12.57v1.1475h1.1400000000000001v-1.1475h2.2874999999999996v1.1475h1.1400000000000001v-2.2874999999999996H24v-5.715h-1.1475Zm-14.857499999999998 6.855H6.855v1.1475H5.715v-1.1475H4.5675v1.1475H3.4275v-1.1475H2.2874999999999996v-3.4275h1.1400000000000001v3.4275h1.1400000000000001v-2.2800000000000002h1.1475v2.2800000000000002h1.1400000000000001v-3.4275h1.1400000000000001Zm6.862500000000001 0h-1.1475v1.1475h-1.1400000000000001v-1.1475h-1.1400000000000001v1.1475h-1.1475v-1.1475h-1.1400000000000001v-3.4275h1.1400000000000001v3.4275h1.1475v-2.2800000000000002h1.1400000000000001v2.2800000000000002h1.1400000000000001v-3.4275h1.1475Zm6.855 0h-1.1400000000000001v1.1475H19.424999999999997v-1.1475h-1.1400000000000001v1.1475h-1.1475v-1.1475h-1.1400000000000001v-3.4275h1.1400000000000001v3.4275h1.1475v-2.2800000000000002h1.1400000000000001v2.2800000000000002h1.1475v-3.4275h1.1400000000000001Z" fill="#9e5e44" stroke-width="1"></path><path d="M20.572499999999998 17.145h1.1400000000000001v2.2800000000000002h-1.1400000000000001Z" fill="#9e5e44" stroke-width="1"></path><path d="M20.572499999999998 4.5675h1.1400000000000001v2.2874999999999996h-1.1400000000000001Z" fill="#9e5e44" stroke-width="1"></path><path d="M19.424999999999997 19.424999999999997h1.1475v1.1475H19.424999999999997Z" fill="#9e5e44" stroke-width="1"></path><path d="M19.424999999999997 3.4275h1.1475v1.1400000000000001H19.424999999999997Z" fill="#9e5e44" stroke-width="1"></path><path d="m19.424999999999997 5.715 0 -1.1475 -3.4275 0 0 -1.1400000000000001 -1.1400000000000001 0 0 2.2874999999999996 2.2800000000000002 0 0 1.1400000000000001 1.1475 0 0 -1.1400000000000001 1.1400000000000001 0z" fill="#9e5e44" stroke-width="1"></path><path d="M17.137500000000003 20.572499999999998h2.2874999999999996v1.1400000000000001h-2.2874999999999996Z" fill="#9e5e44" stroke-width="1"></path><path d="m17.137500000000003 18.285 -2.2800000000000002 0 0 2.2874999999999996 1.1400000000000001 0 0 -1.1475 3.4275 0 0 -1.1400000000000001 -1.1400000000000001 0 0 -1.1400000000000001 -1.1475 0 0 1.1400000000000001z" fill="#9e5e44" stroke-width="1"></path><path d="M17.137500000000003 2.2874999999999996h2.2874999999999996v1.1400000000000001h-2.2874999999999996Z" fill="#9e5e44" stroke-width="1"></path><path d="M14.857499999999998 21.7125h2.2800000000000002v1.1475h-2.2800000000000002Z" fill="#9e5e44" stroke-width="1"></path><path d="M14.857499999999998 1.1400000000000001h2.2800000000000002v1.1475h-2.2800000000000002Z" fill="#9e5e44" stroke-width="1"></path><path d="M13.71 20.572499999999998h1.1475v1.1400000000000001h-1.1475Z" fill="#9e5e44" stroke-width="1"></path><path d="M13.71 2.2874999999999996h1.1475v1.1400000000000001h-1.1475Z" fill="#9e5e44" stroke-width="1"></path><path d="m13.71 21.7125 -1.1400000000000001 0 0 1.1475 -1.1400000000000001 0 0 -1.1475 -1.1475 0 0 1.1475 -1.1400000000000001 0 0 1.1400000000000001 5.715 0 0 -1.1400000000000001 -1.1475 0 0 -1.1475z" fill="#9e5e44" stroke-width="1"></path><path d="M9.1425 5.715h5.715v1.1400000000000001h-5.715Z" fill="#9e5e44" stroke-width="1"></path><path d="M9.1425 17.145h5.715v1.1400000000000001h-5.715Z" fill="#9e5e44" stroke-width="1"></path><path d="m10.2825 2.2874999999999996 1.1475 0 0 -1.1475 1.1400000000000001 0 0 1.1475 1.1400000000000001 0 0 -1.1475 1.1475 0 0 -1.1400000000000001 -5.715 0 0 1.1400000000000001 1.1400000000000001 0 0 1.1475z" fill="#9e5e44" stroke-width="1"></path><path d="M9.1425 20.572499999999998h1.1400000000000001v1.1400000000000001h-1.1400000000000001Z" fill="#9e5e44" stroke-width="1"></path><path d="M9.1425 2.2874999999999996h1.1400000000000001v1.1400000000000001h-1.1400000000000001Z" fill="#9e5e44" stroke-width="1"></path><path d="M6.855 21.7125h2.2874999999999996v1.1475H6.855Z" fill="#9e5e44" stroke-width="1"></path><path d="M6.855 1.1400000000000001h2.2874999999999996v1.1475H6.855Z" fill="#9e5e44" stroke-width="1"></path><path d="M4.5675 20.572499999999998h2.2874999999999996v1.1400000000000001H4.5675Z" fill="#9e5e44" stroke-width="1"></path><path d="m6.855 5.715 2.2874999999999996 0 0 -2.2874999999999996 -1.1475 0 0 1.1400000000000001 -3.4275 0 0 1.1475 1.1475 0 0 1.1400000000000001 1.1400000000000001 0 0 -1.1400000000000001z" fill="#9e5e44" stroke-width="1"></path><path d="M4.5675 2.2874999999999996h2.2874999999999996v1.1400000000000001H4.5675Z" fill="#9e5e44" stroke-width="1"></path><path d="m4.5675 18.285 0 1.1400000000000001 3.4275 0 0 1.1475 1.1475 0 0 -2.2874999999999996 -2.2874999999999996 0 0 -1.1400000000000001 -1.1400000000000001 0 0 1.1400000000000001 -1.1475 0z" fill="#9e5e44" stroke-width="1"></path><path d="M3.4275 19.424999999999997h1.1400000000000001v1.1475H3.4275Z" fill="#9e5e44" stroke-width="1"></path><path d="M3.4275 3.4275h1.1400000000000001v1.1400000000000001H3.4275Z" fill="#9e5e44" stroke-width="1"></path><path d="M2.2874999999999996 17.145h1.1400000000000001v2.2800000000000002H2.2874999999999996Z" fill="#9e5e44" stroke-width="1"></path><path d="M2.2874999999999996 4.5675h1.1400000000000001v2.2874999999999996H2.2874999999999996Z" fill="#9e5e44" stroke-width="1"></path></g></svg>